<svg width="640" height="367" viewBox="0 0 640 367" fill="none" xmlns="http://www.w3.org/2000/svg">
<g clip-path="url(#clip0_171_4)">
<path d="M485.319 312.156L492.674 255.723L388.332 242.176L394.667 193.619L506.264 65.3387L565.812 73.0734L547.474 213.641L566.619 216.13L560.313 264.504L541.168 262.015L533.813 318.449L485.334 312.156H485.319ZM450.713 200.901L498.995 207.349L508.631 132.137L450.713 200.901Z" fill="#F2AABE" stroke="#3C3C3C" stroke-width="4" stroke-miterlimit="10"/>
<path d="M249.015 78.4185C249.015 78.4185 244.296 72.8472 240.413 73.9784C236.53 75.1097 210.753 93.0819 210.753 93.0819L184.692 122.677L168.055 158.084L163.506 185.757L161.395 212.044L173.043 256.302L183.856 277.88L202.987 300.01L223.776 317.996L253.72 332.942L283.38 340.38L309.469 342.36L333.007 339.037L347.986 335.162L364.892 328.516C364.892 328.516 396.778 310.813 409.248 295.598C421.719 280.383 436.698 262.68 439.192 246.913C441.686 231.147 448.899 207.9 446.122 187.991C443.344 168.082 429.215 120.217 410.906 106.374C392.597 92.5304 372.928 72.621 361.279 68.7466C349.63 64.8721 334.665 62.4966 334.665 62.4966L323.569 64.9711L319.97 75.0248L323.569 87.0157L349.63 95.8675L377.916 113.302L402.318 143.181L415.356 174.713L417.014 205.695L411.473 236.124L398.719 263.514L384.86 279.28L364.071 296.15L341.34 307.49L321.104 312.397L299.748 314.122L270.087 308.862L242.085 295.584L216.86 272.62L199.118 245.231L191.636 220.33L190.247 201L193.847 169.976L204.943 143.138L219.085 123.215L236.275 109.103L249.312 101.354L253.748 95.2736L254.031 86.139L251.537 81.6566L249.043 78.3902L249.015 78.4185Z" fill="#FFC4A3"/>
<path d="M278.392 67.9972L270.91 70.1889L270.173 74.9966L307.33 76.849H318.667L320.268 70.1889L305.941 67.9972H278.392Z" fill="#FFC4A3"/>
<path d="M303.999 60.4321V84.216L288.85 81.6707L282.162 77.5842L279.044 70.1889L283.48 65.4095L293.839 60.4321H303.999Z" fill="#C1C1C1"/>
<path d="M227.106 92.1487C227.106 92.1487 184.961 120.924 174.616 173.299" stroke="#FFDFCF" stroke-width="5" stroke-miterlimit="10" stroke-linecap="round"/>
<path d="M196.609 269.948C196.609 269.948 210.1 303.149 255.944 320.853" stroke="#FFDFCF" stroke-width="5" stroke-miterlimit="10" stroke-linecap="round"/>
<path d="M403.934 249.416L401.256 254.577C401.256 254.577 401.214 254.606 401.199 254.62C382.451 286.152 355.044 305.157 318.511 310.375C296.049 313.584 274.481 309.851 254.188 299.699C211.235 278.22 187.101 232.618 193.436 185.036C196.1 165.041 203.809 147.112 216.266 131.232C225.151 119.906 235.921 110.771 248.335 103.489C254.84 99.6854 257.815 92.2052 255.846 85.0927C253.011 74.8834 241.264 69.9909 232.01 75.2511C219.922 82.1373 209.038 90.6215 199.501 100.732C177.167 124.374 164.172 152.372 160.516 184.668C160.19 187.595 159.949 190.55 159.666 193.477V207.038C159.751 207.476 159.879 207.9 159.907 208.339C160.318 216.229 161.409 224.02 163.18 231.713C169.572 259.484 182.723 283.635 203.455 303.22C239.45 337.227 282.275 350.038 331.024 341.384C365.275 335.29 393.334 317.968 415.626 291.356C422.258 283.437 426.438 277.64 431.115 268.435C431.299 268.081 432.05 266.596 432.815 265.366C433.084 264.956 433.694 264.009 433.977 263.599C433.977 263.57 433.991 263.542 434.006 263.528C434.261 262.948 434.558 262.411 434.856 261.859C434.87 261.831 434.884 261.789 434.913 261.761C434.998 261.605 435.054 261.449 435.153 261.294C435.139 261.294 435.125 261.294 435.097 261.294C437.492 254.747 439.802 248.398 442.14 242.007C442.537 240.649 442.933 239.292 443.373 237.934C443.826 236.534 444.336 235.092 444.464 233.621C444.464 233.621 444.464 233.621 444.45 233.621C444.464 233.522 444.492 233.438 444.506 233.353C444.521 233.226 444.549 233.112 444.577 232.999C451.663 200.802 448.928 169.694 435.097 139.829C421.237 109.909 399.357 87.4682 370.136 71.9705C367.727 70.5565 366.622 70.1606 361.988 68.1244C356.206 65.9609 350.339 63.7551 344.33 61.5068C342.517 61.0967 341.68 60.5594 338.818 60.22C331.265 58.7494 325.228 60.8139 320.721 67.0215C320.466 67.375 319.687 67.5022 319.177 67.4739C315.861 67.276 312.559 66.9649 309.243 66.7528C308.166 66.6821 307.089 66.7528 305.842 66.7528V58C300.06 58.9333 294.42 59.6685 288.865 60.828C286.682 61.2805 284.188 62.2138 282.743 63.7692C280.504 66.2013 278.066 66.6397 275.147 66.3427C274.651 66.2862 274.141 66.3427 273.645 66.3427C270.286 66.3851 267.735 68.888 267.764 72.1119C267.792 75.2652 270.3 77.768 273.56 77.8246C275.374 77.8529 277.187 77.768 278.987 77.867C279.597 77.8953 280.348 78.2064 280.73 78.6589C283.111 81.4021 286.115 82.9575 289.658 83.5372C291.288 83.8059 292.932 84.0746 294.575 84.3291C298.288 84.923 301.987 85.5169 305.912 86.139V78.0225C309.866 78.3195 313.636 78.574 317.377 78.9417C317.802 78.9841 318.397 79.6345 318.539 80.1153C319.871 84.6119 322.464 88.1187 326.631 90.3387C326.744 90.3952 326.829 90.4518 326.914 90.5225C327.453 90.7629 327.991 91.0033 328.53 91.2295C328.714 91.3144 328.898 91.3851 329.082 91.4699C329.536 91.6396 329.975 91.8234 330.443 91.9648C330.514 91.9648 330.599 91.9931 330.669 92.0072C330.684 92.0072 330.712 92.0072 330.726 92.0072C331.18 92.0779 331.633 92.1628 332.058 92.3042C332.257 92.3183 332.441 92.3466 332.625 92.4031C339.98 94.3686 347.065 97.0129 353.896 100.35L358.7 103.093C398.549 124.219 423.321 172.762 413.457 221.404C413.188 223.101 412.876 224.798 412.395 226.452C412.366 226.537 412.338 226.608 412.324 226.693C412.324 226.905 412.281 227.145 412.21 227.414C410.396 234.215 408.058 240.819 405.054 247.196M278.392 73.936C276.777 73.936 275.118 74.0067 273.475 73.9219C272.596 73.8795 271.703 73.1583 271.647 72.2816C271.576 71.1504 272.157 70.2878 273.276 70.2313C274.963 70.1464 276.663 70.203 278.392 70.203V73.936ZM302.001 81.6707C297.58 80.9213 293.272 80.2708 288.992 79.4366C286.923 79.0406 285.18 77.9094 283.834 76.255C281.566 73.4835 281.581 70.0333 284.188 67.5871C285.492 66.3569 287.192 65.2115 288.893 64.8014C293.173 63.7975 297.566 63.2319 302.015 62.4824V81.6849L302.001 81.6707ZM318.015 74.9965C314.018 74.7562 310.036 74.5016 305.955 74.2471V70.4292C310.206 70.6838 314.373 70.9242 318.681 71.1787C318.44 72.5644 318.241 73.7239 318.029 74.9824L318.015 74.9965ZM409.815 292.19C388.006 316.978 360.698 332.249 328.147 338.132C320.211 339.56 312.19 340.225 304.028 340.366C250.574 338.372 209.322 315.31 181.801 269.099C170.904 250.788 165.235 230.68 163.818 209.385C160.275 156.232 187.314 105.497 233.384 78.8851C237.338 76.5944 242.298 76.3823 246.266 78.6589C250.489 81.0768 252.657 84.8806 252.558 89.7024C252.459 94.4535 250.135 98.0168 246.039 100.421C240.385 103.744 234.83 107.222 229.884 111.535C207.664 130.921 193.804 154.705 189.879 183.084C184.621 220.994 195.576 253.913 222.303 281.274C240.172 299.571 262.124 310.601 287.532 313.966C325.837 319.043 358.955 307.801 386.32 280.652C403.892 263.217 414.634 241.95 418.049 217.431C423.576 177.711 411.799 143.647 382.833 115.791C368.379 101.891 351.005 92.997 331.534 88.1469C326.106 86.7895 322.521 82.5898 321.968 77.061C321.146 68.8314 329.011 61.8461 337.089 63.854C369.513 71.8998 395.885 89.2216 416.15 115.706C428.436 131.77 436.698 149.756 441.119 169.496C444.591 184.965 445.371 200.59 443.5 216.328C440.085 245.061 428.918 270.443 409.801 292.176L409.815 292.19Z" fill="#3C3C3C"/>
<path d="M124.352 319.255L118.726 262.623L14.015 272.974L9.18262 224.246L88.7962 74.1057L148.556 68.1951L162.571 209.258L181.787 207.363L186.606 255.906L167.389 257.801L173.015 314.433L124.366 319.24L124.352 319.255ZM65.4138 218.689L113.908 214.066L106.241 138.627L65.4138 218.689Z" fill="#9A9FF1" stroke="#3C3C3C" stroke-width="4" stroke-miterlimit="10"/>
</g>
<path d="M74.2496 324.988L74.2495 325L74.2496 325.012C74.254 325.571 74.0838 326.119 73.7627 326.577C73.4416 327.036 72.9856 327.383 72.458 327.571L72.458 327.571L72.4479 327.575L55.5966 333.703L54.9387 333.942L54.6995 334.6L48.5777 351.439C48.5772 351.44 48.5766 351.442 48.5761 351.443C48.3804 351.968 48.0294 352.42 47.5697 352.74C47.1089 353.06 46.5609 353.232 45.9996 353.232C45.4382 353.232 44.8903 353.06 44.4294 352.74C43.9698 352.42 43.6188 351.968 43.4231 351.443C43.4225 351.442 43.422 351.44 43.4214 351.439L37.2971 334.581L37.0577 333.923L36.3986 333.684L19.5606 327.578C19.559 327.577 19.5575 327.577 19.5559 327.576C19.0316 327.381 18.5795 327.03 18.2599 326.57C17.9394 326.109 17.7676 325.561 17.7676 325C17.7676 324.439 17.9394 323.891 18.2599 323.43L17.0332 322.577L18.2599 323.43C18.5795 322.97 19.0318 322.619 19.5562 322.423L36.418 316.297L37.077 316.058L37.316 315.399L43.4232 298.556C43.6189 298.032 43.9699 297.58 44.4294 297.26C44.8903 296.94 45.4382 296.768 45.9996 296.768C46.5609 296.768 47.1089 296.94 47.5697 297.26C48.0293 297.58 48.3804 298.032 48.576 298.557C48.5766 298.558 48.5771 298.559 48.5777 298.561L54.7021 315.418L54.9415 316.077L55.6006 316.316L72.4492 322.426L72.4492 322.426L72.458 322.429C72.9856 322.616 73.4416 322.964 73.7627 323.422L74.9915 322.562L73.7627 323.422C74.0838 323.881 74.254 324.428 74.2496 324.988Z" fill="#F2AABE" stroke="#3C3C3C" stroke-width="3"/>
<path d="M41.8746 343.99L41.8745 344L41.8746 344.01C41.8771 344.34 41.7769 344.662 41.5877 344.932C41.3985 345.202 41.1299 345.407 40.8191 345.518L40.8191 345.518L40.8106 345.521L29.4113 349.666L28.863 349.865L28.6637 350.414L24.523 361.803C24.5226 361.804 24.5221 361.806 24.5217 361.807C24.4061 362.116 24.1987 362.383 23.9274 362.572C23.655 362.761 23.3313 362.863 22.9995 362.863C22.6678 362.863 22.344 362.761 22.0717 362.572C21.8004 362.383 21.5931 362.116 21.4774 361.807C21.477 361.806 21.4765 361.804 21.4761 361.803L17.3337 350.401L17.1342 349.852L16.5849 349.653L5.19246 345.522C4.88308 345.406 4.61628 345.199 4.42764 344.928C4.23824 344.656 4.13672 344.332 4.13672 344C4.13672 343.668 4.23824 343.345 4.42764 343.072C4.61635 342.801 4.88328 342.594 5.19281 342.478L16.5983 338.334L17.1474 338.135L17.3465 337.585L21.4775 326.193C21.5932 325.884 21.8005 325.617 22.0717 325.428C22.344 325.239 22.6678 325.137 22.9995 325.137C23.3313 325.137 23.655 325.239 23.9274 325.428C24.1987 325.617 24.406 325.884 24.5217 326.193L28.6654 337.599L28.8649 338.148L29.4141 338.347L40.8117 342.48L40.8191 342.482C41.1299 342.593 41.3985 342.798 41.5877 343.068C41.7769 343.338 41.8771 343.66 41.8746 343.99Z" fill="#9A9FF1" stroke="#3C3C3C" stroke-width="2.5"/>
<path d="M634.25 33.9883L634.25 33.9999L634.25 34.0116C634.254 34.5715 634.084 35.1188 633.763 35.5775C633.442 36.0362 632.986 36.3834 632.458 36.571L632.458 36.5709L632.448 36.5746L615.597 42.7026L614.939 42.9419L614.7 43.5998L608.578 60.4389C608.577 60.4403 608.577 60.4418 608.576 60.4432C608.38 60.9677 608.029 61.42 607.57 61.7396C607.109 62.0601 606.561 62.2319 606 62.2319C605.438 62.2319 604.89 62.0601 604.429 61.7396C603.97 61.42 603.619 60.9677 603.423 60.4433C603.423 60.4418 603.422 60.4404 603.421 60.4389L597.297 43.5815L597.058 42.9225L596.399 42.6835L579.561 36.5781C579.559 36.5775 579.557 36.5769 579.556 36.5763C579.032 36.3806 578.579 36.0296 578.26 35.5701C577.939 35.1092 577.768 34.5613 577.768 33.9999C577.768 33.4386 577.939 32.8906 578.26 32.4298L577.033 31.5767L578.26 32.4298C578.58 31.9702 579.032 31.6192 579.556 31.4235L596.418 25.2974L597.077 25.058L597.316 24.3989L603.423 7.55637C603.619 7.03205 603.97 6.57987 604.429 6.26028C604.89 5.93975 605.438 5.76794 606 5.76794C606.561 5.76794 607.109 5.93975 607.57 6.26028C608.029 6.5799 608.38 7.03214 608.576 7.55653C608.577 7.55801 608.577 7.5595 608.578 7.56098L614.702 24.4184L614.941 25.0774L615.601 25.3164L632.449 31.4257L632.449 31.4258L632.458 31.4289C632.986 31.6165 633.442 31.9637 633.763 32.4224L634.992 31.5622L633.763 32.4224C634.084 32.8811 634.254 33.4284 634.25 33.9883Z" fill="#9A9FF1" stroke="#3C3C3C" stroke-width="3"/>
<defs>
<clipPath id="clip0_171_4">
<rect width="562" height="286" fill="white" transform="translate(7 58)"/>
</clipPath>
</defs>
</svg>
