<svg width="25" height="26" viewBox="0 0 25 26" fill="none" xmlns="http://www.w3.org/2000/svg">
<mask id="path-1-inside-1_273_6" fill="white">
<path d="M20.625 11.5C20.6272 11.782 20.5415 12.0577 20.3798 12.2887C20.2181 12.5197 19.9884 12.6946 19.7227 12.7891L14.2708 14.7716L12.2891 20.2227C12.1914 20.4858 12.0156 20.7128 11.7851 20.873C11.5547 21.0333 11.2807 21.1192 11 21.1192C10.7193 21.1192 10.4454 21.0333 10.215 20.873C9.98452 20.7128 9.80865 20.4858 9.71097 20.2227L7.72839 14.7656L2.27738 12.7891C2.01424 12.6914 1.78729 12.5155 1.62702 12.2851C1.46676 12.0547 1.38086 11.7807 1.38086 11.5C1.38086 11.2193 1.46676 10.9454 1.62702 10.7149C1.78729 10.4845 2.01424 10.3086 2.27738 10.2109L7.73441 8.22836L9.71097 2.77735C9.80865 2.51421 9.98452 2.28726 10.215 2.12699C10.4454 1.96673 10.7193 1.88083 11 1.88083C11.2807 1.88083 11.5547 1.96673 11.7851 2.12699C12.0156 2.28726 12.1914 2.51421 12.2891 2.77735L14.2717 8.23438L19.7227 10.2109C19.9884 10.3054 20.2181 10.4803 20.3798 10.7113C20.5415 10.9424 20.6272 11.218 20.625 11.5Z"/>
</mask>
<path d="M20.625 11.5C20.6272 11.782 20.5415 12.0577 20.3798 12.2887C20.2181 12.5197 19.9884 12.6946 19.7227 12.7891L14.2708 14.7716L12.2891 20.2227C12.1914 20.4858 12.0156 20.7128 11.7851 20.873C11.5547 21.0333 11.2807 21.1192 11 21.1192C10.7193 21.1192 10.4454 21.0333 10.215 20.873C9.98452 20.7128 9.80865 20.4858 9.71097 20.2227L7.72839 14.7656L2.27738 12.7891C2.01424 12.6914 1.78729 12.5155 1.62702 12.2851C1.46676 12.0547 1.38086 11.7807 1.38086 11.5C1.38086 11.2193 1.46676 10.9454 1.62702 10.7149C1.78729 10.4845 2.01424 10.3086 2.27738 10.2109L7.73441 8.22836L9.71097 2.77735C9.80865 2.51421 9.98452 2.28726 10.215 2.12699C10.4454 1.96673 10.7193 1.88083 11 1.88083C11.2807 1.88083 11.5547 1.96673 11.7851 2.12699C12.0156 2.28726 12.1914 2.51421 12.2891 2.77735L14.2717 8.23438L19.7227 10.2109C19.9884 10.3054 20.2181 10.4803 20.3798 10.7113C20.5415 10.9424 20.6272 11.218 20.625 11.5Z" fill="#F2AABE"/>
<path d="M20.625 11.5L19.6251 11.4923L19.625 11.5L19.6251 11.5078L20.625 11.5ZM19.7227 12.7891L19.3877 11.8468L19.3809 11.8493L19.7227 12.7891ZM14.2708 14.7716L13.9291 13.8319L13.4905 13.9914L13.331 14.43L14.2708 14.7716ZM12.2891 20.2227L13.2266 20.5707L13.2289 20.5643L12.2891 20.2227ZM9.71097 20.2227L8.77106 20.5641L8.77347 20.5706L9.71097 20.2227ZM7.72839 14.7656L8.66829 14.4242L8.50868 13.9849L8.06928 13.8255L7.72839 14.7656ZM2.27738 12.7891L1.92938 13.7266L1.93649 13.7292L2.27738 12.7891ZM1.38086 11.5L2.38086 11.5L1.38086 11.5ZM2.27738 10.2109L1.9359 9.27103L1.92939 9.27344L2.27738 10.2109ZM7.73441 8.22836L8.07588 9.16826L8.51519 9.00865L8.67451 8.56925L7.73441 8.22836ZM9.71097 2.77735L8.77345 2.42935L8.77087 2.43646L9.71097 2.77735ZM11 1.88083L11 2.88083L11 1.88083ZM12.2891 2.77735L13.229 2.43587L13.2266 2.42936L12.2891 2.77735ZM14.2717 8.23438L13.3318 8.57585L13.4914 9.01516L13.9308 9.17448L14.2717 8.23438ZM19.7227 10.2109L19.3818 11.1511L19.3877 11.1532L19.7227 10.2109ZM19.6251 11.5078C19.6256 11.5819 19.6031 11.6544 19.5605 11.7152L21.199 12.8621C21.4799 12.4609 21.6288 11.9821 21.625 11.4923L19.6251 11.5078ZM19.5605 11.7152C19.518 11.776 19.4576 11.822 19.3877 11.8468L20.0577 13.7313C20.5192 13.5672 20.9181 13.2634 21.199 12.8621L19.5605 11.7152ZM19.3809 11.8493L13.9291 13.8319L14.6126 15.7114L20.0644 13.7289L19.3809 11.8493ZM13.331 14.43L11.3493 19.881L13.2289 20.5643L15.2106 15.1133L13.331 14.43ZM11.3516 19.8747C11.325 19.9464 11.277 20.0083 11.2141 20.052L12.3561 21.694C12.7541 21.4172 13.0579 21.0252 13.2266 20.5706L11.3516 19.8747ZM11.2141 20.052C11.1513 20.0958 11.0766 20.1192 11 20.1192V22.1192C11.4849 22.1192 11.9581 21.9708 12.3561 21.694L11.2141 20.052ZM11 20.1192C10.9235 20.1192 10.8488 20.0958 10.7859 20.052L9.64398 21.694C10.042 21.9708 10.5152 22.1192 11 22.1192V20.1192ZM10.7859 20.052C10.7231 20.0083 10.6751 19.9464 10.6485 19.8747L8.77347 20.5706C8.94218 21.0252 9.24596 21.4172 9.64398 21.694L10.7859 20.052ZM10.6509 19.8812L8.66829 14.4242L6.7885 15.1071L8.77108 20.5641L10.6509 19.8812ZM8.06928 13.8255L2.61827 11.849L1.93649 13.7292L7.38751 15.7057L8.06928 13.8255ZM2.62536 11.8516C2.5536 11.8249 2.4917 11.777 2.448 11.7141L0.806054 12.8561C1.08287 13.2541 1.47487 13.5579 1.92939 13.7266L2.62536 11.8516ZM2.448 11.7141C2.40429 11.6513 2.38086 11.5766 2.38086 11.5L0.380859 11.5C0.380859 11.9848 0.529235 12.458 0.806054 12.8561L2.448 11.7141ZM2.38086 11.5C2.38086 11.4235 2.40429 11.3487 2.448 11.2859L0.806054 10.144C0.529235 10.542 0.380859 11.0152 0.380859 11.5L2.38086 11.5ZM2.448 11.2859C2.4917 11.223 2.5536 11.1751 2.62536 11.1484L1.92939 9.27344C1.47487 9.44215 1.08287 9.74593 0.806054 10.144L2.448 11.2859ZM2.61885 11.1508L8.07588 9.16826L7.39294 7.28847L1.93591 9.27105L2.61885 11.1508ZM8.67451 8.56925L10.6511 3.11824L8.77087 2.43646L6.79431 7.88748L8.67451 8.56925ZM10.6485 3.12533C10.6751 3.05357 10.7231 2.99167 10.7859 2.94796L9.64398 1.30602C9.24596 1.58284 8.94218 1.97484 8.77347 2.42936L10.6485 3.12533ZM10.7859 2.94796C10.8488 2.90426 10.9235 2.88083 11 2.88083L11 0.880829C10.5152 0.880829 10.042 1.0292 9.64398 1.30602L10.7859 2.94796ZM11 2.88083C11.0766 2.88083 11.1513 2.90426 11.2141 2.94796L12.3561 1.30602C11.9581 1.0292 11.4849 0.880829 11 0.880829L11 2.88083ZM11.2141 2.94796C11.277 2.99167 11.325 3.05357 11.3516 3.12533L13.2266 2.42936C13.0579 1.97484 12.7541 1.58284 12.3561 1.30602L11.2141 2.94796ZM11.3492 3.11882L13.3318 8.57585L15.2116 7.89291L13.229 2.43588L11.3492 3.11882ZM13.9308 9.17448L19.3818 11.151L20.0636 9.27084L14.6126 7.29428L13.9308 9.17448ZM19.3877 11.1532C19.4576 11.178 19.518 11.224 19.5605 11.2848L21.199 10.1379C20.9181 9.7366 20.5192 9.43281 20.0577 9.26872L19.3877 11.1532ZM19.5605 11.2848C19.6031 11.3456 19.6256 11.4181 19.6251 11.4923L21.625 11.5078C21.6288 11.018 21.4799 10.5391 21.199 10.1379L19.5605 11.2848Z" fill="#3C3C3C" mask="url(#path-1-inside-1_273_6)"/>
<path d="M23.5626 17.9961L23.5625 17.9961L23.5626 18.0039C23.5633 18.0922 23.5364 18.1786 23.4857 18.251C23.4351 18.3234 23.3631 18.3782 23.2798 18.4078L23.2798 18.4078L23.2764 18.409L19.5593 19.7608L19.34 19.8405L19.2602 20.0598L17.9102 23.7733C17.9101 23.7737 17.9099 23.7741 17.9097 23.7746C17.8786 23.8577 17.8228 23.9295 17.7499 23.9802C17.6765 24.0312 17.5894 24.0585 17.5001 24.0585C17.4107 24.0585 17.3236 24.0312 17.2503 23.9802C17.1773 23.9295 17.1216 23.8578 17.0904 23.7746C17.0902 23.7742 17.0901 23.7737 17.0899 23.7733L15.7393 20.0558L15.6595 19.8362L15.4398 19.7565L11.7268 18.4102C11.7263 18.41 11.7258 18.4098 11.7254 18.4096C11.6422 18.3784 11.5706 18.3227 11.5199 18.2498C11.4689 18.1765 11.4415 18.0893 11.4415 18C11.4415 17.9107 11.4689 17.8235 11.5199 17.7502C11.5706 17.6773 11.6423 17.6215 11.7255 17.5903L15.4442 16.2393L15.6639 16.1595L15.7435 15.9398L17.0904 12.2253C17.1216 12.1422 17.1774 12.0705 17.2503 12.0198C17.3236 11.9688 17.4107 11.9415 17.5001 11.9415C17.5894 11.9415 17.6765 11.9688 17.7499 12.0198C17.8228 12.0705 17.8785 12.1422 17.9097 12.2254C17.9099 12.2258 17.91 12.2263 17.9102 12.2267L19.2608 15.9442L19.3406 16.1638L19.5603 16.2435L23.2769 17.5911L23.2769 17.5912L23.2798 17.5922C23.3631 17.6218 23.4351 17.6766 23.4857 17.749C23.5364 17.8214 23.5633 17.9078 23.5626 17.9961Z" fill="#9A9FF1" stroke="#3C3C3C"/>
</svg>
