<svg width="26" height="26" viewBox="0 0 26 26" fill="none" xmlns="http://www.w3.org/2000/svg">
<path d="M13 21.9559C12.8365 21.7337 12.6383 21.4618 12.4144 21.1491C11.7627 20.2391 10.8949 18.9872 10.0282 17.6171C9.16009 16.2449 8.30031 14.7655 7.65967 13.3987C7.00803 12.0083 6.625 10.8197 6.625 10C6.625 9.16282 6.78989 8.33384 7.11027 7.56039C7.43064 6.78694 7.90022 6.08417 8.49219 5.49219C9.08417 4.90022 9.78694 4.43064 10.5604 4.11027C11.3338 3.78989 12.1628 3.625 13 3.625C13.8372 3.625 14.6662 3.78989 15.4396 4.11027C16.2131 4.43064 16.9158 4.90022 17.5078 5.49219C18.0998 6.08417 18.5694 6.78694 18.8897 7.56039C19.2101 8.33384 19.375 9.16282 19.375 10C19.375 10.8197 18.992 12.0083 18.3403 13.3987C17.6997 14.7655 16.8399 16.2449 15.9718 17.6171C15.1051 18.9872 14.2373 20.2391 13.5856 21.1491C13.3617 21.4618 13.1635 21.7337 13 21.9559ZM13 12.625C13.6962 12.625 14.3639 12.3484 14.8562 11.8562C15.3484 11.3639 15.625 10.6962 15.625 10C15.625 9.30381 15.3484 8.63613 14.8562 8.14385C14.3639 7.65156 13.6962 7.375 13 7.375C12.3038 7.375 11.6361 7.65156 11.1438 8.14384C10.6516 8.63613 10.375 9.30381 10.375 10C10.375 10.6962 10.6516 11.3639 11.1438 11.8562C11.6361 12.3484 12.3038 12.625 13 12.625Z" fill="white" stroke="#3C3C3C" stroke-width="1.25"/>
</svg>
