<svg width="26" height="26" viewBox="0 0 26 26" fill="none" xmlns="http://www.w3.org/2000/svg">
<path d="M4.86834 8.62331C5.64097 11.6378 7.20959 14.3893 9.41007 16.5897C11.6106 18.7902 14.362 20.3588 17.3765 21.1315C19.6959 21.7219 21.6665 19.7275 21.6665 17.3333V16.25C21.6665 15.652 21.1801 15.1721 20.5853 15.1125C19.5989 15.0153 18.6307 14.7823 17.708 14.4202L16.0613 16.0669C13.3802 14.7817 11.2181 12.6196 9.93292 9.93848L11.5796 8.29181C11.2171 7.36919 10.9838 6.40093 10.8863 5.41448C10.8278 4.81865 10.3478 4.33331 9.74984 4.33331H8.6665C6.27234 4.33331 4.27792 6.3039 4.86834 8.62331Z" fill="white" stroke="#3C3C3C" stroke-width="1.5" stroke-linecap="round" stroke-linejoin="round"/>
</svg>
