<svg width="60" height="60" viewBox="0 0 60 60" fill="none" xmlns="http://www.w3.org/2000/svg">
<path d="M58.2501 29.9884L58.25 30L58.2501 30.0116C58.2544 30.5715 58.0842 31.1188 57.7632 31.5775C57.4421 32.0362 56.9861 32.3835 56.4585 32.571L56.4585 32.571L56.4484 32.5747L39.5971 38.7027L38.9392 38.9419L38.7 39.5998L32.5782 56.439C32.5777 56.4404 32.5771 56.4418 32.5766 56.4433C32.3809 56.9677 32.0298 57.42 31.5702 57.7397C31.1094 58.0602 30.5614 58.232 30.0001 58.232C29.4387 58.232 28.8908 58.0602 28.4299 57.7397C27.9703 57.42 27.6192 56.9678 27.4236 56.4434C27.423 56.4419 27.4225 56.4404 27.4219 56.439L21.2976 39.5816L21.0582 38.9226L20.399 38.6836L3.56111 32.5781C3.55953 32.5775 3.55796 32.577 3.55639 32.5764C3.0321 32.3807 2.57997 32.0297 2.2604 31.5702C1.93987 31.1093 1.76807 30.5614 1.76807 30C1.76807 29.4386 1.93987 28.8907 2.2604 28.4298L1.03373 27.5767L2.2604 28.4298C2.58002 27.9703 3.03226 27.6192 3.55666 27.4235L20.4185 21.2975L21.0775 21.0581L21.3165 20.399L27.4237 3.55643C27.6193 3.03211 27.9704 2.57993 28.4299 2.26034C28.8908 1.93981 29.4387 1.76801 30.0001 1.76801C30.5614 1.76801 31.1094 1.93981 31.5702 2.26034C32.0298 2.57996 32.3809 3.0322 32.5765 3.55659C32.5771 3.55808 32.5776 3.55956 32.5782 3.56104L38.7026 20.4185L38.942 21.0774L39.6011 21.3164L56.4497 27.4258L56.4497 27.4258L56.4585 27.429C56.9861 27.6165 57.4421 27.9638 57.7632 28.4225L58.992 27.5623L57.7632 28.4225C58.0842 28.8812 58.2544 29.4285 58.2501 29.9884Z" fill="#9A9FF1" stroke="#3C3C3C" stroke-width="3"/>
</svg>
