<svg width="70" height="70" viewBox="0 0 70 70" fill="none" xmlns="http://www.w3.org/2000/svg">
<path d="M56.6252 30.9884L56.6251 31L56.6252 31.0116C56.629 31.4946 56.4821 31.9668 56.2052 32.3624C55.9282 32.7581 55.5348 33.0577 55.0797 33.2195L55.0797 33.2195L55.0696 33.2231L39.7052 38.8104L39.0473 39.0497L38.8081 39.7076L33.2267 55.0601C33.2262 55.0614 33.2257 55.0628 33.2252 55.0642C33.0562 55.5169 32.7531 55.9074 32.3562 56.1834C31.9582 56.4602 31.485 56.6086 31.0002 56.6086C30.5154 56.6086 30.0422 56.4602 29.6441 56.1834C29.2474 55.9075 28.9443 55.5171 28.7752 55.0644C28.7747 55.063 28.7742 55.0615 28.7736 55.0601L23.1899 39.6909L22.9505 39.032L22.2914 38.793L6.94014 33.2266C6.93858 33.226 6.93701 33.2254 6.93545 33.2248C6.48292 33.0558 6.09266 32.7527 5.8168 32.3561C5.53998 31.958 5.3916 31.4848 5.3916 31C5.3916 30.5152 5.53998 30.042 5.8168 29.644C6.09273 29.2472 6.48311 28.9441 6.93578 28.7751L22.3093 23.1898L22.9682 22.9504L23.2072 22.2913L28.7753 6.93533C28.9444 6.48277 29.2475 6.09249 29.6441 5.81661C30.0422 5.53979 30.5154 5.39142 31.0002 5.39142C31.485 5.39142 31.9582 5.53979 32.3562 5.81661C32.753 6.09253 33.0561 6.48289 33.2251 6.93554C33.2257 6.93701 33.2262 6.93848 33.2268 6.93996L38.8104 22.3091L39.0498 22.968L39.7089 23.207L55.0709 28.7774L55.0709 28.7774L55.0797 28.7805C55.5348 28.9423 55.9282 29.2419 56.2052 29.6376C56.4821 30.0333 56.629 30.5054 56.6252 30.9884Z" fill="white" stroke="#3C3C3C" stroke-width="3"/>
<path d="M65.8752 48.9884L65.8751 49L65.8752 49.0116C65.8769 49.2382 65.808 49.4598 65.6781 49.6455C65.5481 49.8311 65.3635 49.9717 65.15 50.0476L65.15 50.0476L65.1398 50.0512L54.7317 53.8362L54.0738 54.0754L53.8346 54.7333L50.0548 65.1304C50.0543 65.1316 50.0538 65.1329 50.0534 65.1342C49.9732 65.3479 49.8299 65.5321 49.6425 65.6625C49.4539 65.7936 49.2298 65.8639 49.0001 65.8639C48.7705 65.8639 48.5463 65.7936 48.3578 65.6625C48.1704 65.5321 48.0271 65.3479 47.9469 65.1343C47.9464 65.133 47.9459 65.1317 47.9454 65.1304L44.1641 54.7222L43.9247 54.0632L43.2656 53.8242L32.8656 50.0531C32.6521 49.9729 32.4679 49.8297 32.3376 49.6423C32.2065 49.4538 32.1362 49.2296 32.1362 49C32.1362 48.7703 32.2065 48.5462 32.3376 48.3577C32.468 48.1702 32.6522 48.027 32.8659 47.9468L43.2779 44.164L43.9369 43.9246L44.1759 43.2655L47.947 32.8655C48.0272 32.6519 48.1704 32.4678 48.3578 32.3375C48.5463 32.2064 48.7705 32.1361 49.0001 32.1361C49.2298 32.1361 49.4539 32.2064 49.6425 32.3375C49.8299 32.4678 49.9731 32.6521 50.0533 32.8657L53.8361 43.2778L54.0755 43.9368L54.7346 44.1758L65.1411 47.9492L65.1411 47.9492L65.15 47.9524C65.3635 48.0283 65.5481 48.1689 65.6781 48.3545C65.808 48.5402 65.8769 48.7617 65.8752 48.9884Z" fill="white" stroke="#3C3C3C" stroke-width="3"/>
</svg>
